<svg width="32" height="30" viewBox="0 0 32 30" fill="none" xmlns="http://www.w3.org/2000/svg">
<path d="M13.8744 0.0367103C6.22366 0.0367103 0 5.80023 0 12.8853C0 19.9704 6.22366 25.7339 13.8744 25.7339C16.2132 25.7339 18.5124 25.22 20.4548 24.2288C20.6104 24.4022 20.7829 24.562 20.9702 24.7061L24.9343 28.3771C25.3003 28.7585 25.7467 29.0666 26.2459 29.2825C26.7452 29.4984 27.2869 29.6175 27.8376 29.6325C28.3884 29.6475 28.9367 29.5581 29.4488 29.3698C29.9609 29.1815 30.4261 28.8982 30.8157 28.5374C31.2053 28.1766 31.5112 27.7458 31.7146 27.2716C31.9179 26.7973 32.0145 26.2896 31.9983 25.7795C31.982 25.2695 31.8534 24.7678 31.6203 24.3055C31.3872 23.8431 31.0545 23.4298 30.6426 23.0908L26.6785 19.4198C26.4854 19.2409 26.2728 19.0809 26.0442 18.9425C27.1145 17.1437 27.7884 15.0512 27.7884 12.8486C27.7884 5.76352 21.5648 0 13.914 0L13.8744 0.0367103ZM13.8744 3.70774C19.3845 3.70774 23.7847 7.78259 23.7847 12.8853C23.7847 15.3082 22.8333 17.5475 21.1684 19.1995C21.1287 19.2362 21.0891 19.2729 21.0494 19.3096C20.8622 19.4537 20.6897 19.6135 20.5341 19.7869C18.7899 21.2553 16.4114 22.0996 13.8348 22.0996C8.32464 22.0996 3.92447 18.0248 3.92447 12.922C3.92447 7.8193 8.32464 3.74445 13.8348 3.74445L13.8744 3.70774Z" fill="#D7D3D3"/>
</svg>
